<svg width="2064" height="2041" viewBox="0 0 2064 2041" fill="none" xmlns="http://www.w3.org/2000/svg">
<line x1="397" y1="2041" x2="397" y2="8" stroke="#272727" stroke-width="2"/>
<line x1="211" y1="2041" x2="211" y2="8" stroke="#272727" stroke-width="2"/>
<line x1="25.999" y1="111.499" x2="2064" y2="111.499" stroke="#272727" stroke-width="2"/>
<line x1="26" y1="221" x2="2064" y2="221" stroke="#272727" stroke-width="2"/>
<line x1="26" y1="328" x2="2064" y2="328" stroke="#272727" stroke-width="2"/>
<line x1="26" y1="435" x2="2064" y2="435" stroke="#272727" stroke-width="2"/>
<line x1="26" y1="542" x2="2064" y2="542" stroke="#272727" stroke-width="2"/>
<line x1="26" y1="649" x2="2064" y2="649" stroke="#272727" stroke-width="2"/>
<line x1="26" y1="756" x2="2064" y2="756" stroke="#272727" stroke-width="2"/>
<line x1="26" y1="863" x2="2064" y2="863" stroke="#272727" stroke-width="2"/>
<line x1="26" y1="970" x2="2064" y2="970" stroke="#272727" stroke-width="2"/>
<line x1="26" y1="1077" x2="2064" y2="1077" stroke="#272727" stroke-width="2"/>
<line x1="26" y1="1184" x2="2064" y2="1184" stroke="#272727" stroke-width="2"/>
<line x1="26" y1="1291" x2="2064" y2="1291" stroke="#272727" stroke-width="2"/>
<line x1="26" y1="1398" x2="2064" y2="1398" stroke="#272727" stroke-width="2"/>
<line x1="26" y1="1505" x2="2064" y2="1505" stroke="#272727" stroke-width="2"/>
<line x1="26" y1="1612" x2="2064" y2="1612" stroke="#272727" stroke-width="2"/>
<line x1="26" y1="1719" x2="2064" y2="1719" stroke="#272727" stroke-width="2"/>
<line x1="26" y1="1826" x2="2064" y2="1826" stroke="#272727" stroke-width="2"/>
<line x1="26" y1="1933" x2="2064" y2="1933" stroke="#272727" stroke-width="2"/>
<line x1="582" y1="2041" x2="582" y2="8" stroke="#272727" stroke-width="2"/>
<line x1="767" y1="2041" x2="767" y2="8" stroke="#272727" stroke-width="2"/>
<line x1="952" y1="2041" x2="952" y2="8" stroke="#272727" stroke-width="2"/>
<line x1="1137" y1="2041" x2="1137" y2="8" stroke="#272727" stroke-width="2"/>
<line x1="1322" y1="2041" x2="1322" y2="8" stroke="#272727" stroke-width="2"/>
<line x1="1507" y1="2041" x2="1507" y2="8" stroke="#272727" stroke-width="2"/>
<line x1="1692" y1="2041" x2="1692" y2="8" stroke="#272727" stroke-width="2"/>
<line x1="1877" y1="2041" x2="1877" y2="8" stroke="#272727" stroke-width="2"/>
</svg>
